#format: frame checksums
#version: 2
#hash: MD5
#tb 0: 1/30
#media_type 0: video
#codec_id 0: rawvideo
#dimensions 0: 640x360
#sar 0: 0/1
#stream#, dts,        pts, duration,     size, hash
0,          0,          0,        1,   691200, 2de74361ba70fc829e5e3330015a5770
0,          1,          1,        1,   691200, 4f7485ce62b620d715b98ea588660442
0,          2,          2,        1,   691200, 8cc89ab766e99b1684f9cf5588d5a18a
0,          3,          3,        1,   691200, 0387b46e6e762e0ecc9754f2f3903a96
0,          4,          4,        1,   691200, 22ec3760ca9c7daaa4c940494d6bf573
0,          5,          5,        1,   691200, 2feb1c0b332bcf5b4f3d5a5f820896a2
0,          6,          6,        1,   691200, e9bcd334264e97c7970003261fe6f166
0,          7,          7,        1,   691200, 4aecc915287565e9663e3561c79bf971
0,          8,          8,        1,   691200, f8fa37074d04f6ec20a46b4e5ef479eb
0,          9,          9,        1,   691200, e4e7f47707f08fcf4a1bd255e4d3d9bb
0,         10,         10,        1,   691200, 1c2142dccb1536d66d772a4362fa801c
0,         11,         11,        1,   691200, ecdc5e867328754717d8951369086fa9
0,         12,         12,        1,   691200, 7e60bddc68f6863ad87db677f3460903
0,         13,         13,        1,   691200, dd6d8b77f319c1f491382b78c5dc89d9
0,         14,         14,        1,   691200, 9328c27bbc23a2b93165fff6762d5208
0,         15,         15,        1,   691200, ad5bf90e0355a0b32d9e80a600599d2d
0,         16,         16,        1,   691200, 7f9791ceba291427df9de01d0603ab69
0,         17,         17,        1,   691200, 2cff237f2107a28e622395485752cec9
0,         18,         18,        1,   691200, bddaad40916ccfcd387aa473ad44bb69
0,         19,         19,        1,   691200, 8955f2d4ff2ecb956f8337cdd003bbe4
0,         20,         20,        1,   691200, 5161898a7f8ff52ff765d4dd02410cbe
0,         21,         21,        1,   691200, 12662f53e887b3674b6c8cc80e00b080
0,         22,         22,        1,   691200, 2eda70015c7e688e713da525e3fecf6c
0,         23,         23,        1,   691200, d53c35f96f26af6fb78b03ab4275ec32
0,         24,         24,        1,   691200, fb1da6756511e9ebbdf18c3878d5c657
0,         25,         25,        1,   691200, 6f3a5bc48c0231976223f81172aa7943
0,         26,         26,        1,   691200, 7f9eb1de81f0c36ab401656d1fff870d
0,         27,         27,        1,   691200, 10cd2b1690791526c230700be99350dd
0,         28,         28,        1,   691200, ccfb1b692b3999123705215d3d46293b
0,         29,         29,        1,   691200, df20f8b8c0b6c7d054da5807d8f85f44
0,         30,         30,        1,   691200, df20f8b8c0b6c7d054da5807d8f85f44
